# xmcd
#
# Track frame offsets: 
#        183
#        25040
#        52118
#        76330
#        102920
#        124260
#        157758
#        180588
#
# Disc length: 2700 seconds
#
# Revision: 0
# Processed by: cddbd v1.5.1PL0 Copyright (c) Steve Scherf et al.
# Submitted via: ExactAudioCopy v0.90b4
#
DISCID=590a8a08
DTITLE=Various Artist - Khazana (Vol.1) A Treasure Of Ghazals
DYEAR=1991
DGENRE=Ghazals
TTITLE0=Baad Muddat Unhen Dekhkar (Jagjit and Chitra Singh)
TTITLE1=Is Mod Se Jaate Hain (Bhupinder)
TTITLE2=Mana Ke Hum Pe Joro-Jafa Kijiyega (Salma Agha)
TTITLE3=Duniya Ko Yeh Kamaal Bhi Karke Dikhaiye (Talat Aziz)
TTITLE4=Taj Mahal Mein Aa Jana (Nina and Rajendra Mehta)
TTITLE5=Main Hawa Hoon Kahan Watan Hoon (Ahmed Hussain and Mohd. Hussain
TTITLE5=)
TTITLE6=Har Sham Sitaron Ke Diye Jalte Hain (Suman Kalyanpur)
TTITLE7=Abhi Kal Ki Baat Hai (Anup Jalota)
EXTD=
EXTT0=
EXTT1=
EXTT2=
EXTT3=
EXTT4=
EXTT5=
EXTT6=
EXTT7=
PLAYORDER=
